<?xml version="1.0" encoding="UTF-8"?>
<svg width="31px" height="32px" viewBox="0 0 31 32" version="1.1" xmlns="http://www.w3.org/2000/svg" xmlns:xlink="http://www.w3.org/1999/xlink">
    <title>logo</title>
    <g id="Page-1" stroke="none" stroke-width="1" fill="none" fill-rule="evenodd">
        <g id="Dashboard" transform="translate(-13.000000, -20.000000)" fill="#114BF9">
            <g id="logo" transform="translate(12.000000, 20.000000)">
                <path d="M2.41759046,0.571428571 L2.5571804,0.579026455 C2.78925712,0.604396825 3.01663808,0.69352381 3.21187617,0.849714286 L3.21187617,0.849714286 L17.9958762,12.6777143 L18.277752,12.909789 C21.1508477,15.3436155 22.7913047,18.8756607 22.7913047,22.656 L22.7913047,22.656 L22.7913047,24.4965714 L22.7977317,24.7447002 C22.8661105,26.0626357 23.4773215,27.288 24.497019,28.1382857 L24.497019,28.1382857 L25.3901619,28.8817143 L25.4919204,28.976191 C25.9375879,29.4373892 25.9732857,30.1709714 25.553019,30.6765714 L25.553019,30.6765714 L25.4535838,30.7828393 C25.2105369,31.0147143 24.8936619,31.1337143 24.5741619,31.1337143 L24.5741619,31.1337143 L24.4305481,31.1256402 C24.1917651,31.0986825 23.9578762,31.004 23.7593047,30.8382857 L23.7593047,30.8382857 L22.8673047,30.0954286 L22.6540083,29.9107955 C21.1196472,28.5302652 20.2444476,26.5724969 20.2444476,24.4965714 L20.2444476,24.4965714 L20.2444476,22.656 L20.2394703,22.3334984 C20.146698,19.3311337 18.7608811,16.5510148 16.405019,14.6674286 L16.405019,14.6674286 L1.62101903,2.83942857 L1.51724455,2.74669528 C1.06184188,2.29322921 1.01202855,1.5616381 1.42216188,1.04857143 C1.67359046,0.734285714 2.04387617,0.571428571 2.41759046,0.571428571 L2.41759046,0.571428571 Z M24.0661619,15.8537143 L24.2231447,15.863424 C24.4319676,15.8893714 24.6371333,15.9675429 24.8181619,16.1005714 L24.8181619,16.1005714 L28.8473047,19.0605714 L29.0538921,19.2211013 C30.4684169,20.3817981 31.2183177,22.3041039 31.2215905,24.0342857 L31.2215905,24.0342857 L31.2215905,24.0565714 L31.2148266,24.3286147 C31.1887275,24.8689096 31.0870598,25.3847347 30.9073047,25.8451429 L30.9073047,25.8451429 L30.8215061,26.0514561 C30.2334973,27.3778171 29.3312765,27.7337921 28.4839094,27.7694166 L28.3572619,27.7724389 C28.0629263,27.774264 27.7775708,27.7408276 27.517019,27.7 L27.517019,27.7 L27.9598762,26.4897143 L27.9329476,26.4845 L27.9329476,26.4845 L27.9055905,26.4788571 L24.9855905,25.2628571 L24.8678439,25.2067405 C24.2997713,24.8996674 24.0458762,24.20575 24.2987333,23.5977143 L24.2987333,23.5977143 L24.3550383,23.4800561 C24.5808237,23.0637288 25.0136663,22.8157009 25.4682512,22.8135893 L25.5926287,22.8191688 C25.7172668,22.8309621 25.842269,22.8615714 25.9638762,22.9125714 L25.9638762,22.9125714 L28.6964476,24.0502857 L28.7029716,23.8392462 C28.7029967,22.7852723 28.2162333,21.7575714 27.3387333,21.1125714 L27.3387333,21.1125714 L23.3113047,18.152 L23.203896,18.0637928 C22.7306089,17.6301714 22.6504666,16.9005714 23.0387333,16.3725714 C23.2873047,16.0337143 23.6741619,15.8537143 24.0661619,15.8537143 L24.0661619,15.8537143 Z M3.6924476,8.212 L3.83155342,8.21959524 C4.06295554,8.24495238 4.29025712,8.334 4.48501903,8.48971429 L4.48501903,8.48971429 L14.7638762,16.7142857 L14.9927849,16.9044916 C16.7156867,18.391381 17.6975905,20.5298333 17.6975905,22.8194286 L17.6975905,22.8194286 L17.6975905,24.7662857 L17.6910206,24.8966057 C17.6258538,25.5392746 17.0839119,26.04 16.4244476,26.04 L16.4244476,26.04 L16.2942217,26.03343 C15.651961,25.9682612 15.1507333,25.4262857 15.1507333,24.7662857 L15.1507333,24.7662857 L15.1507333,22.8194286 L15.144093,22.5520498 C15.0690155,21.0434938 14.3603524,19.6533016 13.1735905,18.704 L13.1735905,18.704 L2.89416188,10.48 L2.79039452,10.3873663 C2.33505585,9.93429841 2.28570474,9.20220952 2.69530474,8.68914286 C2.94730474,8.37542857 3.31816188,8.212 3.6924476,8.212 L3.6924476,8.212 Z M3.68959046,14.5788571 L3.83320686,14.5869286 C4.07200315,14.613873 4.30597141,14.7084762 4.50501903,14.8737143 L4.50501903,14.8737143 L12.1455905,21.2411429 L12.2474485,21.3356194 C12.6935143,21.7968152 12.7287143,22.5303619 12.3084476,23.0354286 L12.3084476,23.0354286 L12.2091764,23.141885 C11.966403,23.3741429 11.6490905,23.4931429 11.3295905,23.4931429 L11.3295905,23.4931429 L11.1859793,23.4850714 C10.9472095,23.458127 10.7134,23.3635238 10.5153047,23.1982857 L10.5153047,23.1982857 L2.87416188,16.8308571 L2.77241052,16.7362809 C2.32680696,16.2746844 2.29157141,15.5416 2.71130474,15.036 C2.96330474,14.7342857 3.32501903,14.5788571 3.68959046,14.5788571 L3.68959046,14.5788571 Z" id="Combined-Shape"></path>
            </g>
        </g>
    </g>
</svg>